# xmcd
#
# Track frame offsets:
#   150
#   27056
#   46879
#   67935
#   92122
#   106662
#   129715
#   141799
#   161195
#   183859
#   197096
#   213596
#   241074
#   272184
#
# Disc length: 3841 seconds
#
# Revision: 0
# Processed by: cddbd v1.5.2PL0 Copyright (c) Steve Scherf et al.
# Submitted via: uFREEDB ActiveX Control 1.5
#
DISCID=c10eff0e
DTITLE=B.B. King - All Time Gratest Hits
DYEAR=2016
DGENRE=Blues
TTITLE0=There's Somethig on Your Mind (with Etta James)
TTITLE1=Sinner's Prayer (with Ray Charles)
TTITLE2=The Thrill is Gone
TTITLE3=Born Under a Bad Sign
TTITLE4=Summer in the City
TTITLE5=Sweet Little Angel
TTITLE6=How Blue Can You Get
TTITLE7=Sweet Sixteen
TTITLE8=Everyday I Have the Blues
TTITLE9=Woke Up This Morning
TTITLE10=My Guitar Sings the Blues
TTITLE11=Paying the Cost to Be the Boss
TTITLE12=All Over Again
TTITLE13=All Over Again (Part II)
EXTD=
EXTT0=
EXTT1=
EXTT2=
EXTT3=
EXTT4=
EXTT5=
EXTT6=
EXTT7=
EXTT8=
EXTT9=
EXTT10=
EXTT11=
EXTT12=
EXTT13=
PLAYORDER=
